<svg width="95" height="27" viewBox="0 0 95 27" fill="none" xmlns="http://www.w3.org/2000/svg">
<g clip-path="url(#clip0_3599_121030)">
<path d="M18.1776 8.12036H13.9543V22.7369H18.1776V8.12036Z" fill="#FFC600"/>
<path d="M15.9655 4.87218C17.2983 4.87218 18.3788 3.78151 18.3788 2.43609C18.3788 1.09067 17.2983 0 15.9655 0C14.6327 0 13.5522 1.09067 13.5522 2.43609C13.5522 3.78151 14.6327 4.87218 15.9655 4.87218Z" fill="#FF6200"/>
<path d="M94.7986 8.12036H90.5754V22.7369H94.7986V8.12036Z" fill="#00BC70"/>
<path d="M92.5866 4.87218C93.9194 4.87218 94.9999 3.78151 94.9999 2.43609C94.9999 1.09067 93.9194 0 92.5866 0C91.2538 0 90.1733 1.09067 90.1733 2.43609C90.1733 3.78151 91.2538 4.87218 92.5866 4.87218Z" fill="#FFC600"/>
<path d="M22.1998 9.54141C22.9902 8.81668 23.9112 8.45735 24.6131 8.27465V8.12036H20.3899V13.1834C20.4663 12.483 20.782 10.8427 22.1998 9.54141Z" fill="#00B4E7"/>
<path d="M22.1998 9.54129C20.782 10.8426 20.4663 12.4829 20.3899 13.1832V22.9398H24.6131V8.32324H24.4401C23.7644 8.51813 22.9278 8.87339 22.1998 9.54129Z" fill="#7C3271"/>
<path d="M20.3657 13.4533C20.3738 16.5472 20.3818 19.643 20.3878 22.7369V13.1833C20.3758 13.3011 20.3677 13.3945 20.3657 13.4533Z" fill="#F60069"/>
<path d="M31.6517 9.5413C30.4471 8.46536 29.1459 8.17506 28.5788 8.07965C27.6296 7.91724 26.6261 7.93755 25.691 8.07965C25.5703 8.09792 25.158 8.13243 24.613 8.27454V13.8045C24.9971 12.8767 25.8579 12.2454 26.8252 12.1804C27.9091 12.1093 28.9428 12.759 29.3812 13.8045V22.7145H33.6326V13.1792C33.5461 12.6514 33.1922 10.9177 31.6537 9.54333L31.6517 9.5413Z" fill="#F60069"/>
<path d="M72.979 8.12036C68.9247 8.12036 65.6387 11.4375 65.6387 15.5301C65.6387 19.6228 68.9247 22.9399 72.979 22.9399C77.0333 22.9399 80.3193 19.6228 80.3193 15.5301C80.3193 11.4375 77.0333 8.12036 72.979 8.12036ZM72.8785 18.6768C71.1007 18.6768 69.6608 17.2232 69.6608 15.4286C69.6608 13.634 71.1007 12.1805 72.8785 12.1805C74.6562 12.1805 76.0961 13.634 76.0961 15.4286C76.0961 17.2232 74.6562 18.6768 72.8785 18.6768Z" fill="#FF6200"/>
<path d="M50.3545 15.327C50.3545 11.2344 47.0684 7.91724 43.0142 7.91724C38.9599 7.91724 35.6738 11.2344 35.6738 15.327C35.6738 19.4196 38.9599 22.7368 43.0142 22.7368C44.2087 22.7368 45.3349 22.4485 46.3324 21.939V22.7368H50.3545V15.7797C50.3545 15.7269 50.3525 15.6742 50.3485 15.6214C50.3525 15.5239 50.3545 15.4265 50.3545 15.327ZM42.9136 18.4736C41.1358 18.4736 39.6959 17.0201 39.6959 15.2255C39.6959 13.4309 41.1358 11.9774 42.9136 11.9774C44.6914 11.9774 46.1313 13.4309 46.1313 15.2255C46.1313 17.0201 44.6914 18.4736 42.9136 18.4736Z" fill="#FFC600"/>
<path d="M61.7713 17.6231C61.1841 18.2687 60.3415 18.6768 59.4043 18.6768C57.6266 18.6768 56.1867 17.2232 56.1867 15.4286C56.1867 13.634 57.6266 12.1805 59.4043 12.1805C60.4038 12.1805 61.2967 12.6413 61.888 13.362L64.81 10.4123C63.4727 9.00141 61.5924 8.12036 59.5049 8.12036C55.4506 8.12036 52.1646 11.4375 52.1646 15.5301C52.1646 19.6228 55.4506 22.9399 59.5049 22.9399C61.5803 22.9399 63.4546 22.069 64.7899 20.6703L61.7713 17.6231Z" fill="#00B4E7"/>
<path d="M88.5645 0.609131V4.26327H87.1567V23.549C87.1547 23.8332 87.1165 24.8543 86.3523 25.7821C85.5539 26.7484 84.5102 26.9554 84.2407 27.0001H81.3247V23.346H82.7324V4.06026C82.7345 3.77605 82.7727 2.75492 83.5369 1.82718C84.3352 0.86086 85.379 0.653793 85.6485 0.609131H88.5645Z" fill="#F60069"/>
<path d="M87.1567 8.12036H82.7324V12.3835H87.1567V8.12036Z" fill="#783A46"/>
<path d="M82.7325 8.12036H80.7214V12.3835H82.7325V8.12036Z" fill="#00BC70"/>
<path d="M89.1678 8.12036H87.1567V12.3835H89.1678V8.12036Z" fill="#00BC70"/>
<path d="M12.2211 18.2544C12.1386 20.183 10.7309 21.9959 8.80227 22.3146C6.22209 22.7409 2.97022 22.5176 0.355858 22.5176V18.8208H7.69418C8.08231 18.7518 8.3719 18.429 8.40006 18.0514C8.42821 17.6332 8.12656 17.2414 7.69418 17.1623C6.35884 17.1623 5.01546 17.2232 3.68817 17.0953H3.22362C0.810356 16.8923 -0.082551 14.4948 0.00593521 12.4261C0.0883883 10.4975 1.49612 8.68468 3.42472 8.36595C6.0049 7.93964 8.45234 8.16295 11.0667 8.16295V11.8597H4.5308C4.14267 11.9287 3.85307 12.2515 3.82693 12.6291C3.79677 13.0473 4.09842 13.4391 4.5308 13.5183C5.86614 13.5183 7.21153 13.4574 8.53882 13.5853H9.00337C11.4166 13.7883 12.3075 16.1858 12.2211 18.2544Z" fill="#00BC70"/>
</g>
<defs>
<clipPath id="clip0_3599_121030">
<rect width="95" height="27" fill="white"/>
</clipPath>
</defs>
</svg>
